<svg xmlns="http://www.w3.org/2000/svg" viewBox="0 0 1420.43 1030.78"><defs><style>.cls-1{fill:#eca93e;}</style></defs><title>Asset 1</title><g id="Layer_2" data-name="Layer 2"><g id="Layer_1-2" data-name="Layer 1"><path class="cls-1" d="M1245.73,201.91c28.92,9.63,51.16,26.57,63,50.55,32.36,65.34-23.54,160.26-126.51,221.86,17.87,28.44,28,60.69,28,94.86,0,97.66-82.34,179.59-193.37,202-17.19,146.62-126.2,259.64-258.1,259.64-94.5,0-177.24-58-222.89-144.8a492.67,492.67,0,0,1-139.79,19.8c-200.3,0-362.68-115.08-362.68-257,0-74.28,44.47-141.22,115.58-188.14C35.18,387.51-25.5,281.18,10.23,204.74,45.71,128.87,164.72,107,292.71,146.23c-9-62.47,4.87-114.5,42.08-136C394.49-24.21,492.31,32.63,557,137.79L599,124.18l98.75-32.05L843,45,888,85.47c29.32-11,60.2-21.52,92.27-31.25,223.56-67.82,420-72.68,438.75-10.85C1431.57,84.85,1361,145.8,1245.73,201.91Z"/></g></g></svg>