<svg xmlns="http://www.w3.org/2000/svg" viewBox="0 0 1408.25 976.84"><defs><style>.cls-1{font-size:826px;fill:#08d665;font-family:ComicSansMS-Italic, Comic Sans MS;font-style:italic;}</style></defs><title>logo</title><g id="Layer_2" data-name="Layer 2"><g id="Layer_1-2" data-name="Layer 1"><path d="M745.66,850.25c-40.89,0-80.07-15.63-113.33-45.21l-.14-.12H632c-8.63-.09-17.46-.3-26.25-.62h-.21l-.15.14c-31.75,29.55-71.88,45.82-113,45.82a159.61,159.61,0,0,1-81.89-22.57c-24.31-14.29-45.75-35.13-62-60.25l-.35-.53-.43.45c-38.27,39.87-87.93,61.82-139.83,61.82-55.39,0-107.47-24.58-146.64-69.23S.5,655.9.5,592.72a264.33,264.33,0,0,1,14.48-87l0-.12,0-.12a221.76,221.76,0,0,1-2.78-35A215.45,215.45,0,0,1,38.12,367.6l.1-.18-.06-.2A289.19,289.19,0,0,1,26.29,284c0-44,9.18-85.72,26.55-120.7,12-24.16,27.66-44.16,45.32-57.85,18.49-14.33,38.45-21.59,59.33-21.59,19.31,0,37.91,6.25,55.28,18.58l.23.16.25-.11a248.57,248.57,0,0,1,82.12-18.23h.2l.14-.15c25.2-27.74,54.71-42.4,85.32-42.4,32.71,0,63.85,16.54,90.05,47.82l.25.3.36-.17a56,56,0,0,1,24.63-5.79c1.43,0,2.89.06,4.35.17l.3,0,.16-.25C526.21,46,558,25.25,590.51,25.25c32.24,0,63.74,20.43,88.7,57.52l.31.45.42-.35c26.58-21.86,57-33.42,88-33.42,42.12,0,82.77,21.37,114.46,60.15l.12.15.18,0c12.13,2.28,23.86,5,34.84,8l.41.11.18-.39c26.64-58.59,66.62-92.2,109.7-92.2,26.87,0,53,13.25,75.47,38.33,22,24.47,39.45,58.9,50.6,99.59A389,389,0,0,1,1167.22,266c0,72.42-18.63,140.32-51.12,186.29l-.12.18,0,.21a520.77,520.77,0,0,1,10.56,106.09c0,149.11-59.21,270.41-132,270.41-33.4,0-65.28-25.65-89.77-72.24-.68-1.3-1.35-2.61-2-3.94l-.41-.8-.47.77c-1.67,2.77-3.47,5.6-5.35,8.42C859.11,817.86,804.1,850.25,745.66,850.25Z"/><path d="M1027.82,25.75c26.73,0,52.7,13.2,75.1,38.16,21.9,24.41,39.36,58.78,50.49,99.39A388.9,388.9,0,0,1,1166.72,266c0,72.32-18.59,140.11-51,186l-.25.36.08.42a520.42,520.42,0,0,1,10.55,106c0,148.83-59,269.91-131.48,269.91-33.2,0-64.92-25.56-89.32-72-.72-1.34-1.42-2.73-2-3.93l-.81-1.6-.94,1.54c-1.67,2.76-3.47,5.59-5.34,8.4-37.38,56.34-92.23,88.65-150.5,88.65-40.76,0-79.83-15.59-113-45.08l-.28-.25H632c-8.62-.1-17.45-.3-26.23-.62l-.42,0-.3.29a173.33,173.33,0,0,1-51.81,33.55,159.06,159.06,0,0,1-142.48-10.37c-24.24-14.25-45.62-35-61.83-60.09l-.69-1.06-.87.91c-38.18,39.76-87.71,61.66-139.47,61.66a184,184,0,0,1-80.5-18.52,206.91,206.91,0,0,1-65.76-50.54,239.08,239.08,0,0,1-44.37-75,267.66,267.66,0,0,1-1.83-178.68l.08-.24,0-.24a221.84,221.84,0,0,1-2.77-34.91,214.92,214.92,0,0,1,25.84-102.7l.2-.37-.12-.4A288.45,288.45,0,0,1,26.79,284c0-43.9,9.16-85.56,26.5-120.47,12-24.1,27.58-44,45.18-57.68,18.4-14.26,38.26-21.49,59-21.49,19.21,0,37.71,6.22,55,18.49l.45.32.51-.22a248.35,248.35,0,0,1,81.95-18.19l.41,0,.28-.31c25.1-27.63,54.48-42.23,84.95-42.23,32.56,0,63.57,16.47,89.67,47.65l.5.59.7-.34a55.57,55.57,0,0,1,24.42-5.74c1.41,0,2.86.06,4.31.17l.59,0,.33-.49c12.29-18.5,26.08-32.92,41-42.85,15.36-10.24,31.5-15.44,48-15.44,16.33,0,32.33,5.1,47.57,15.17C652.85,50.68,666.55,64.85,678.8,83l.61.92.85-.7C706.75,61.47,737.06,50,767.93,50c42,0,82.48,21.3,114.08,60l.23.28.36.07c12.12,2.28,23.83,5,34.8,7.94l.82.22.35-.77c12.75-28,29.23-51.22,47.65-67,19.25-16.51,40-24.89,61.6-24.89m0-1c-44.73,0-84.55,36.18-110.16,92.49-10.91-3-22.57-5.64-34.88-7.95C852.09,71.72,811.9,49,767.93,49c-32.22,0-62.39,12.22-88.31,33.54-24.29-36.1-55.32-57.74-89.11-57.74-34.11,0-65.4,22-89.8,58.74-1.45-.12-2.91-.18-4.39-.18a56.52,56.52,0,0,0-24.85,5.84c-25.27-30.16-56.56-48-90.44-48-31.78,0-61.29,15.71-85.69,42.56A250.63,250.63,0,0,0,213.06,102c-16.88-12-35.71-18.67-55.57-18.67-42.93,0-81.06,31.29-105.1,79.72C35.7,196.66,25.79,238.54,25.79,284a290.55,290.55,0,0,0,11.89,83.41,215.14,215.14,0,0,0-26,103.18,220.89,220.89,0,0,0,2.79,35.06A265.32,265.32,0,0,0,0,592.72C0,723.59,93.08,829.67,207.91,829.67c54,0,103.23-23.47,140.19-62,32.58,50.36,85.09,83,144.31,83,43,0,82.46-17.23,113.33-46q13,.47,26.26.62c32.11,28.55,71.32,45.33,113.66,45.33,60.83,0,115.21-34.65,151.34-89.09q2.75-4.15,5.36-8.44c.67,1.32,1.34,2.64,2,3.94,23.65,45,55.36,72.51,90.21,72.51,73.16,0,132.48-121.29,132.48-270.91a523,523,0,0,0-10.57-106.19c31.27-44.24,51.21-111.39,51.21-186.58,0-36.83-4.79-71.73-13.35-103C1132,81.3,1083.72,24.75,1027.82,24.75Z"/><text class="cls-1" transform="translate(217.3 726.38)">H.</text></g></g></svg>